<?xml version="1.0" standalone="no"?>
<!DOCTYPE svg PUBLIC "-//W3C//DTD SVG 20010904//EN"
 "http://www.w3.org/TR/2001/REC-SVG-20010904/DTD/svg10.dtd">
<svg version="1.0" xmlns="http://www.w3.org/2000/svg"
 width="300.000000pt" height="113.000000pt" viewBox="0 0 300.000000 113.000000"
 preserveAspectRatio="xMidYMid meet">
<metadata>
Created by potrace 1.10, written by Peter Selinger 2001-2011
</metadata>
<g transform="translate(0.000000,113.000000) scale(0.100000,-0.100000)"
fill="#000000" stroke="none">
<path d="M1805 1089 c-41 -11 -74 -43 -96 -95 -11 -23 -35 -58 -54 -77 -31
-31 -35 -41 -35 -85 0 -28 -5 -54 -10 -57 -6 -4 -21 -27 -34 -53 -13 -26 -40
-71 -60 -100 -42 -62 -56 -108 -56 -179 0 -40 -4 -53 -15 -53 -18 0 -17 -4
-20 138 -3 131 -17 165 -74 170 -26 3 -39 -4 -69 -35 -57 -59 -225 -294 -227
-317 -5 -62 35 -88 142 -94 l81 -4 6 -33 c7 -35 28 -59 62 -69 29 -9 65 23 78
68 7 23 22 44 42 56 l30 20 30 -39 c125 -168 414 -145 509 39 l16 31 35 -30
c31 -28 41 -31 104 -31 82 0 100 -6 100 -32 0 -35 38 -78 70 -78 34 0 70 34
70 65 0 12 16 36 35 54 45 40 45 70 3 107 l-33 27 -2 111 c-1 61 -2 118 -3
127 0 9 -9 26 -20 38 -23 27 -81 31 -105 7 -11 -10 -25 -13 -45 -9 -33 6 -51
-17 -31 -41 11 -13 5 -46 -8 -46 -4 0 -15 17 -25 38 -10 20 -43 73 -74 117
-42 59 -58 92 -62 125 -4 38 -11 48 -47 72 -27 18 -46 41 -53 63 -19 58 -96
99 -155 84z m78 -40 c29 -13 57 -58 57 -92 0 -20 9 -28 45 -41 36 -14 45 -22
45 -41 0 -14 -6 -30 -13 -36 -10 -10 -7 -18 20 -43 39 -37 142 -201 150 -238
5 -26 53 -82 53 -62 0 6 -5 15 -12 22 -18 18 94 162 127 162 47 0 57 -34 53
-185 l-3 -135 26 0 c59 0 64 -66 6 -72 -25 -2 -31 -7 -29 -22 8 -43 -8 -86
-34 -92 -37 -10 -54 11 -54 68 l0 49 -100 -2 c-67 -1 -105 3 -115 11 -25 21
-17 60 22 109 46 57 50 60 77 53 19 -5 19 -4 7 11 -17 21 -40 22 -47 2 -9 -22
-22 -18 -30 8 -4 12 -15 27 -24 34 -10 7 -23 27 -31 45 -7 18 -30 59 -50 90
-27 42 -39 54 -43 42 -12 -30 -6 -66 15 -96 26 -35 49 -109 49 -153 0 -17 -7
-54 -15 -82 -58 -197 -300 -265 -453 -128 -70 63 -96 126 -90 225 5 82 21 121
72 178 18 20 37 48 41 62 4 14 19 37 33 52 21 23 25 36 23 81 -2 52 -1 53 34
70 30 15 35 21 35 53 0 28 8 44 34 70 36 36 74 44 119 23z m-499 -391 c13 -18
16 -52 16 -158 l0 -136 32 -9 c53 -16 46 -75 -8 -75 -21 0 -24 -5 -24 -36 0
-47 -16 -74 -43 -74 -34 0 -47 19 -47 67 l0 43 -97 0 c-103 0 -133 12 -133 53
0 18 219 322 244 339 20 14 45 8 60 -14z m726 -213 c0 -7 -7 -18 -15 -25 -13
-11 -15 -7 -15 25 0 32 2 36 15 25 8 -7 15 -18 15 -25z"/>
<path d="M1795 1028 c-78 -45 -49 -158 40 -158 87 0 120 116 44 155 -33 18
-57 18 -84 3z m45 -15 c0 -24 -36 -103 -47 -103 -7 0 -13 5 -13 10 0 6 4 10 8
10 5 0 14 17 20 38 10 33 10 35 -3 18 -8 -11 -15 -27 -15 -35 0 -11 -3 -12
-11 -4 -19 19 17 72 49 73 6 0 12 -3 12 -7z m40 -51 c0 -19 -18 -42 -32 -42
-12 0 -9 35 4 48 17 17 28 15 28 -6z"/>
<path d="M1740 878 c0 -7 -15 -28 -32 -47 -19 -20 -22 -26 -8 -14 25 21 25 21
60 3 43 -23 124 -26 164 -5 38 20 44 19 49 -7 4 -20 4 -19 6 5 0 17 -4 27 -13
27 -7 0 -21 10 -30 23 l-17 22 12 -24 c16 -33 0 -44 -69 -49 -77 -6 -125 17
-116 53 3 14 3 25 0 25 -3 0 -6 -5 -6 -12z"/>
<path d="M1760 763 c0 -4 33 -7 74 -5 73 3 75 3 79 -22 4 -26 4 -25 3 1 -1 28
-2 28 -78 31 -43 2 -78 -1 -78 -5z"/>
<path d="M1680 707 c-14 -7 -26 -21 -28 -32 -6 -28 -23 -47 -39 -41 -7 3 -13
1 -13 -3 0 -5 6 -11 14 -14 18 -7 56 20 56 39 0 8 17 22 37 30 48 21 124 11
182 -21 24 -14 50 -25 58 -25 27 0 -7 31 -62 56 -57 27 -163 32 -205 11z"/>
<path d="M2247 457 l-67 -92 66 -3 c37 -2 68 -1 71 1 2 3 2 46 1 96 l-3 91
-68 -93z m39 -53 c-6 -17 -36 -19 -36 -2 0 6 8 20 18 31 15 17 17 17 20 3 2
-10 1 -24 -2 -32z"/>
<path d="M1297 538 c-2 -7 -32 -50 -66 -96 -33 -45 -61 -83 -61 -85 0 -1 31
-1 70 1 l70 4 0 94 c0 91 -3 108 -13 82z m-17 -123 c0 -18 -5 -25 -20 -25 -23
0 -24 4 -10 31 15 27 30 24 30 -6z"/>
<path d="M720 1035 c-22 -26 7 -46 39 -26 12 8 12 12 2 25 -17 20 -25 20 -41
1z"/>
<path d="M1541 986 c-14 -17 -7 -36 14 -36 22 0 29 20 13 36 -13 13 -16 13
-27 0z"/>
<path d="M1235 971 c-10 -9 -170 -67 -215 -78 -27 -6 -80 -50 -80 -67 0 -5 13
3 29 18 16 15 33 28 38 28 4 0 33 12 63 25 30 14 95 35 143 47 56 15 83 26 72
30 -23 8 -39 8 -50 -3z"/>
<path d="M1357 952 c4 -17 -4 -27 -43 -52 -54 -34 -54 -37 0 -15 41 17 67 58
48 77 -8 8 -9 5 -5 -10z"/>
<path d="M1223 935 c-75 -21 -213 -76 -213 -86 0 -5 -6 -9 -14 -9 -16 0 -41
-28 -33 -36 7 -8 151 23 192 41 17 7 55 22 85 34 30 12 69 32 85 46 l30 24
-40 0 c-22 0 -64 -7 -92 -14z m39 -31 c-26 -16 -52 -24 -64 -21 -13 4 -33 -3
-54 -19 -18 -14 -53 -28 -76 -31 -42 -6 -43 -6 -26 14 22 24 171 77 197 70 10
-2 25 -1 32 4 8 5 19 9 24 9 6 0 -9 -12 -33 -26z"/>
<path d="M2271 877 c-5 -7 -6 -19 -2 -26 11 -17 52 -5 45 14 -8 19 -31 26 -43
12z"/>
<path d="M1212 850 c-18 -11 -36 -19 -40 -17 -4 2 -20 -2 -37 -9 l-30 -13 45
0 c35 0 52 6 80 29 39 34 30 39 -18 10z"/>
<path d="M493 830 c-80 -48 -83 -159 -7 -219 54 -42 150 -16 186 50 61 111
-71 235 -179 169z m118 -20 c25 -14 49 -62 49 -100 0 -80 -116 -122 -172 -62
-14 15 -28 38 -31 51 -8 31 15 84 44 105 26 18 81 21 110 6z"/>
<path d="M574 773 c2 -24 -31 -29 -37 -6 -4 15 -5 14 -6 -3 -1 -26 26 -39 45
-23 16 13 18 35 5 43 -5 3 -8 -2 -7 -11z"/>
<path d="M2445 760 c-40 -45 20 -105 65 -65 25 23 25 36 0 63 -26 27 -42 28
-65 2z m52 -26 c7 -20 -17 -37 -34 -23 -15 13 -6 39 13 39 8 0 17 -7 21 -16z"/>
<path d="M337 626 c-8 -19 15 -37 32 -26 17 10 7 40 -13 40 -7 0 -16 -6 -19
-14z"/>
<path d="M840 576 c-10 -13 -10 -19 0 -32 12 -14 15 -14 29 0 14 15 14 17 0
32 -14 14 -17 14 -29 0z"/>
<path d="M487 362 c-22 -24 -21 -45 3 -67 45 -40 105 20 65 65 -23 25 -47 25
-68 2z m51 -34 c-2 -13 -10 -23 -18 -23 -8 0 -16 10 -18 23 -3 17 2 22 18 22
16 0 21 -5 18 -22z"/>
<path d="M813 134 c-8 -21 13 -42 28 -27 13 13 5 43 -11 43 -6 0 -13 -7 -17
-16z"/>
<path d="M1493 74 c-9 -23 13 -40 32 -24 12 10 13 16 4 26 -15 18 -28 18 -36
-2z"/>
</g>
</svg>
