<?xml version="1.0" standalone="no"?>
<!DOCTYPE svg PUBLIC "-//W3C//DTD SVG 20010904//EN"
 "http://www.w3.org/TR/2001/REC-SVG-20010904/DTD/svg10.dtd">
<svg version="1.0" xmlns="http://www.w3.org/2000/svg"
 width="900.000000pt" height="900.000000pt" viewBox="0 0 900.000000 900.000000"
 preserveAspectRatio="xMidYMid meet">
<metadata>
Created by potrace 1.10, written by Peter Selinger 2001-2011
</metadata>
<g transform="translate(0.000000,900.000000) scale(0.100000,-0.100000)"
fill="#000000" stroke="none">
<path d="M3023 7621 c-18 -10 -48 -30 -66 -44 -19 -14 -680 -672 -1468 -1460
-935 -936 -1440 -1448 -1453 -1473 -10 -22 -22 -47 -27 -56 -12 -23 -12 -173
0 -196 4 -9 18 -35 29 -57 20 -39 2831 -2862 2916 -2928 77 -60 96 -67 198
-67 90 0 96 1 158 38 70 41 106 85 139 170 27 69 27 135 -1 209 -20 56 -70
107 -1187 1225 -789 791 -1162 1171 -1155 1178 7 7 1253 11 3804 13 2087 2
3814 7 3837 12 23 4 47 13 54 21 6 8 17 14 24 14 23 0 104 89 127 141 13 27
29 49 35 49 9 0 13 22 13 78 0 66 -3 79 -20 90 -11 7 -20 19 -20 27 0 20 -42
85 -71 111 -49 43 -94 68 -138 78 -30 6 -1357 12 -3846 15 -3021 5 -3800 9
-3800 18 0 7 518 532 1151 1165 633 634 1158 1167 1166 1183 55 109 61 169 27
257 -33 85 -69 129 -139 171 -63 36 -68 37 -160 36 -72 0 -103 -4 -127 -18z"/>
</g>
</svg>
